# xmcd CD database file
#
# Track frame offsets:
#	150
#	15240
#	29641
#	43122
#	55219
#	68978
#	82396
#	99205
#	111849
#	124336
#	137172
#	151767
#	165090
#	176102
#
# Disc length: 2466 seconds
#
# Revision: 0
# Processed by: cddbd v1.5.1PL0 Copyright (c) Steve Scherf et al.
# Submitted via: CDex 1.50beta9
#
DISCID=b709a00e
DTITLE=Amber Digby - Music From The Honky Tonks
DYEAR=2005
DGENRE=Country
TTITLE0=I'm Ashamed Of You
TTITLE1=Cowboy Lovin' Night
TTITLE2=If You See My Baby
TTITLE3=Close Up The Honky Tonks
TTITLE4=Here I Am Again
TTITLE5=So Easy To Forgive Him
TTITLE6=Somebody Somewhere
TTITLE7=Three Years
TTITLE8=The One You Slip Around With
TTITLE9=Into My Arms Again
TTITLE10=You're Still On My Mind
TTITLE11=Foolin'
TTITLE12=Threshold
TTITLE13=Just Get Up And Close The Door
EXTD=YEAR: 2005
EXTT0=
EXTT1=
EXTT2=
EXTT3=
EXTT4=
EXTT5=
EXTT6=
EXTT7=
EXTT8=
EXTT9=
EXTT10=
EXTT11=
EXTT12=
EXTT13=
PLAYORDER=
